HIERARCHY
ROOT Hips
{
	OFFSET -0.001795 -0.223333 0.028219
	CHANNELS 6 Xposition Yposition Zposition Zrotation Yrotation Xrotation 
	JOINT LeftUpLeg
	{
		OFFSET 0.069520 -0.091406 -0.006815
		CHANNELS 3 Zrotation Yrotation Xrotation
		JOINT LeftLeg
		{
			OFFSET 0.034277 -0.375199 -0.004496
			CHANNELS 3 Zrotation Yrotation Xrotation
			JOINT LeftFoot
			{
				OFFSET -0.013596 -0.397961 -0.043693
				CHANNELS 3 Zrotation Yrotation Xrotation
				JOINT LeftToe
				{
					OFFSET 0.026358 -0.055791 0.119288
					CHANNELS 3 Zrotation Yrotation Xrotation
					End Site
					{
						OFFSET 0.000000 0.000000 0.000000
					}
				}
			}
		}
	}
	JOINT RightUpLeg
	{
		OFFSET -0.067670 -0.090522 -0.004320
		CHANNELS 3 Zrotation Yrotation Xrotation
		JOINT RightLeg
		{
			OFFSET -0.038290 -0.382569 -0.008850
			CHANNELS 3 Zrotation Yrotation Xrotation
			JOINT RightFoot
			{
				OFFSET 0.015774 -0.398415 -0.042312
				CHANNELS 3 Zrotation Yrotation Xrotation
				JOINT RightToe
				{
					OFFSET -0.025372 -0.048144 0.123348
					CHANNELS 3 Zrotation Yrotation Xrotation
					End Site
					{
						OFFSET 0.000000 0.000000 0.000000
					}
				}
			}
		}
	}
	JOINT Spine
	{
		OFFSET -0.002533 0.108963 -0.026696
		CHANNELS 3 Zrotation Yrotation Xrotation
		JOINT Spine1
		{
			OFFSET 0.005487 0.135180 0.001092
			CHANNELS 3 Zrotation Yrotation Xrotation
			JOINT Spine2
			{
				OFFSET 0.001457 0.052922 0.025425
				CHANNELS 3 Zrotation Yrotation Xrotation
				JOINT Neck
				{
					OFFSET -0.002778 0.213870 -0.042857
					CHANNELS 3 Zrotation Yrotation Xrotation
					JOINT Head
					{
						OFFSET 0.005152 0.064970 0.051349
						CHANNELS 3 Zrotation Yrotation Xrotation
						End Site
						{
							OFFSET 0.000000 0.000000 0.000000
						}
					}
				}
				JOINT LeftShoulder
				{
					OFFSET 0.078845 0.121749 -0.034090
					CHANNELS 3 Zrotation Yrotation Xrotation
					JOINT LeftArm
					{
						OFFSET 0.090977 0.030469 -0.008868
						CHANNELS 3 Zrotation Yrotation Xrotation
						JOINT LeftForeArm
						{
							OFFSET 0.259612 -0.012772 -0.027456
							CHANNELS 3 Zrotation Yrotation Xrotation
							JOINT LeftHand
							{
								OFFSET 0.249234 0.008986 -0.001171
								CHANNELS 3 Zrotation Yrotation Xrotation
								End Site
								{
									OFFSET 0.000000 0.000000 0.000000
								}
							}
						}
					}
				}
				JOINT RightShoulder
				{
					OFFSET -0.081759 0.118833 -0.038615
					CHANNELS 3 Zrotation Yrotation Xrotation
					JOINT RightArm
					{
						OFFSET -0.096012 0.032551 -0.009143
						CHANNELS 3 Zrotation Yrotation Xrotation
						JOINT RightForeArm
						{
							OFFSET -0.253742 -0.013329 -0.021401
							CHANNELS 3 Zrotation Yrotation Xrotation
							JOINT RightHand
							{
								OFFSET -0.255298 0.007772 -0.005559
								CHANNELS 3 Zrotation Yrotation Xrotation
								End Site
								{
									OFFSET 0.000000 0.000000 0.000000
								}
							}
						}
					}
				}
			}
		}
	}
}
MOTION
Frames: 18
Frame Time: 0.050000
0.000000 0.957740 0.000000 -0.697027 -3.324116 0.235866 2.807437 0.474737 6.887143 -2.563900 0.408368 -8.404654 3.220610 9.926402 14.037422 0.000000 0.000000 0.000000 -3.095704 -0.194705 4.202944 3.226848 -0.368751 -5.058203 -1.336483 -7.990656 12.197248 0.000000 0.000000 0.000000 5.236091 -0.339122 3.436422 -4.456859 1.667368 -21.350554 -1.509781 5.358881 27.225213 8.035290 -2.924166 -23.543666 0.000000 0.000000 0.000000 -15.295156 -2.736353 -0.046198 -36.278717 -7.701864 -3.794972 6.296573 -19.499526 -0.300612 0.000000 0.000000 0.000000 22.476351 -7.389239 -4.786653 37.543821 9.361884 -3.155953 -6.896327 21.758795 -0.117415 0.000000 0.000000 0.000000 
0.000046 0.956495 0.001120 -0.728329 -3.765193 0.350592 3.117222 0.462574 6.912858 -2.809133 0.425265 -8.517754 3.405230 10.132337 13.825613 0.000000 0.000000 0.000000 -3.355445 -0.118363 3.403328 3.321007 -0.361997 -4.095074 -1.467429 -8.374833 12.495938 0.000000 0.000000 0.000000 5.545145 -0.347077 3.383601 -5.162459 1.843147 -21.517517 -1.246450 6.144703 27.083905 7.957117 -2.672298 -24.210171 0.000000 0.000000 0.000000 -16.048035 -2.726143 -0.224765 -39.581339 -8.663694 -3.782236 5.333590 -18.540196 -0.119889 0.000000 0.000000 0.000000 24.287510 -8.019369 -5.258585 40.590489 8.261109 -3.694306 -6.943307 22.955904 -0.059720 0.000000 0.000000 0.000000 
0.000012 0.955976 0.002017 -0.451619 -3.340615 0.210857 3.266819 0.433639 6.716153 -3.261022 0.427977 -7.190003 3.279856 9.933514 13.562939 0.000000 0.000000 0.000000 -3.790420 -0.130154 3.943796 3.330273 -0.370266 -4.584229 -0.923571 -7.315213 12.485409 0.000000 0.000000 0.000000 5.615416 -0.363339 3.561067 -5.366044 1.897074 -22.066790 -1.474170 6.015778 27.372236 8.384946 -2.876316 -24.478514 0.000000 0.000000 0.000000 -16.665433 -4.057096 0.367174 -42.009217 -7.508604 -4.331647 4.118322 -19.389010 0.080367 0.000000 0.000000 0.000000 25.788998 -7.496274 -5.057118 42.789511 7.057413 -4.256394 -5.305269 23.014587 0.249993 0.000000 0.000000 0.000000 
-0.000178 0.955585 0.003239 -0.341041 -3.468020 -0.288649 3.343967 0.493124 7.543218 -3.346342 0.436655 -7.405515 3.340997 9.949358 13.130380 0.000000 0.000000 0.000000 -4.026727 -0.159267 4.659842 3.776865 -0.395350 -4.678404 -0.790675 -7.145645 12.677032 0.000000 0.000000 0.000000 5.717631 -0.367629 3.679079 -5.850491 2.022751 -22.248064 -1.303445 5.942641 27.784787 8.099464 -2.747433 -24.455663 0.000000 0.000000 0.000000 -17.785406 -3.862893 0.226516 -44.085162 -7.458248 -4.576651 1.962235 -19.185523 0.454792 0.000000 0.000000 0.000000 27.332877 -7.304811 -5.154142 44.569262 6.021268 -4.783464 -2.914486 23.544475 0.702724 0.000000 0.000000 0.000000 
-0.000380 0.955788 0.004413 -0.359015 -3.233076 -0.357802 3.495311 0.492793 7.746975 -3.434780 0.440999 -7.693256 3.117875 9.687683 13.498301 0.000000 0.000000 0.000000 -3.902196 -0.184227 4.854131 3.378791 -0.376651 -4.838745 -1.139512 -7.817867 12.869305 0.000000 0.000000 0.000000 5.551990 -0.354276 3.605574 -5.464134 1.929199 -22.079172 -1.338151 5.946097 27.029224 7.920795 -2.710668 -23.646375 0.000000 0.000000 0.000000 -18.500697 -4.509175 0.440095 -46.299705 -6.859748 -4.894538 0.113322 -18.358233 0.723136 0.000000 0.000000 0.000000 27.942935 -7.111774 -5.074371 47.074923 5.073797 -5.247858 -1.763086 22.550195 0.883271 0.000000 0.000000 0.000000 
-0.000489 0.955908 0.005278 -0.333992 -3.317785 -0.306324 3.325662 0.508997 7.787382 -3.147410 0.429740 -7.927132 3.329858 10.065094 13.797694 0.000000 0.000000 0.000000 -4.190343 -0.160571 4.844732 3.633367 -0.389469 -4.792162 -0.954543 -7.476156 12.830540 0.000000 0.000000 0.000000 5.459470 -0.331174 3.370270 -5.467549 1.928399 -22.076770 -1.197081 5.636971 27.126394 7.498826 -2.448496 -24.063278 0.000000 0.000000 0.000000 -18.729356 -4.605968 0.578233 -48.737060 -6.728109 -5.212637 -1.409503 -17.792880 0.953002 0.000000 0.000000 0.000000 27.798248 -6.663858 -4.891246 49.664490 4.888779 -5.480653 0.495405 21.869294 1.228255 0.000000 0.000000 0.000000 
-0.000511 0.955813 0.005702 -0.270537 -3.391104 -0.426017 3.318493 0.517065 7.855422 -3.286951 0.437105 -7.847164 3.313350 10.030942 13.778040 0.000000 0.000000 0.000000 -4.066445 -0.170897 4.868552 3.417640 -0.375187 -4.530695 -1.035548 -7.564806 12.593794 0.000000 0.000000 0.000000 5.295460 -0.324409 3.383446 -5.186577 1.854920 -22.004114 -1.254449 5.447732 27.008842 7.383315 -2.446635 -23.837932 0.000000 0.000000 0.000000 -19.424188 -5.126246 0.872214 -50.288396 -6.042055 -5.624352 -3.005631 -17.123732 1.156070 0.000000 0.000000 0.000000 28.141550 -5.855605 -4.480227 51.194951 4.540315 -5.712000 1.518803 21.486667 1.366223 0.000000 0.000000 0.000000 
-0.000481 0.955719 0.005891 -0.300276 -3.486276 -0.315461 3.178558 0.511867 7.631569 -3.024537 0.424312 -7.792657 3.561376 10.387253 13.663054 0.000000 0.000000 0.000000 -4.009677 -0.156752 4.598722 3.410652 -0.371354 -4.196331 -0.945441 -7.217726 11.975826 0.000000 0.000000 0.000000 5.284225 -0.309529 3.192949 -5.040372 1.814888 -21.930428 -1.212276 5.457240 27.053685 7.430080 -2.458445 -24.014545 0.000000 0.000000 0.000000 -19.608341 -5.660029 1.173118 -51.877762 -5.853303 -5.869200 -4.166156 -16.692033 1.296888 0.000000 0.000000 0.000000 28.171463 -5.468598 -4.236895 52.892782 4.682074 -5.785517 2.526442 21.201563 1.519297 0.000000 0.000000 0.000000 
-0.000411 0.955834 0.006004 -0.255486 -3.431668 -0.376929 3.085503 0.516860 7.614973 -3.058427 0.425383 -7.769841 3.478610 10.251585 13.596736 0.000000 0.000000 0.000000 -3.843372 -0.172006 4.633057 3.267927 -0.362842 -4.145839 -0.965883 -7.218245 11.872262 0.000000 0.000000 0.000000 5.201821 -0.300091 3.124951 -4.938470 1.789353 -21.898832 -1.211201 5.448391 27.062106 7.364824 -2.430683 -23.902893 0.000000 0.000000 0.000000 -19.630752 -6.019095 1.361135 -53.217829 -5.911133 -5.977274 -5.067567 -16.667512 1.427460 0.000000 0.000000 0.000000 28.536454 -5.074135 -3.998178 53.821238 4.544590 -5.925090 3.289610 20.914130 1.623420 0.000000 0.000000 0.000000 
-0.000390 0.955926 0.006102 -0.274991 -3.533525 -0.404200 2.917543 0.529894 7.606371 -2.856853 0.418058 -7.908458 3.577227 10.380162 13.503797 0.000000 0.000000 0.000000 -3.930378 -0.171056 4.743753 3.471600 -0.374704 -4.206200 -0.775367 -6.796992 11.641968 0.000000 0.000000 0.000000 5.216118 -0.289299 3.000107 -4.917430 1.782958 -21.826397 -1.143423 5.578679 27.128809 7.332148 -2.390401 -23.958851 0.000000 0.000000 0.000000 -19.525731 -6.336365 1.521944 -54.165285 -5.974243 -6.043128 -5.947090 -16.578790 1.545546 0.000000 0.000000 0.000000 28.785868 -4.881828 -3.861555 54.762473 4.613974 -5.981063 3.860361 20.688051 1.704140 0.000000 0.000000 0.000000 
-0.000380 0.955887 0.006195 -0.259022 -3.350960 -0.418854 2.897188 0.536684 7.719696 -2.863032 0.418369 -8.040644 3.436299 10.139838 13.289616 0.000000 0.000000 0.000000 -3.897883 -0.181793 4.835113 3.351658 -0.370206 -4.340178 -0.764666 -6.762428 11.664188 0.000000 0.000000 0.000000 5.304444 -0.292229 3.002978 -4.976750 1.801929 -21.860866 -1.201431 5.400861 27.050853 7.295756 -2.401208 -23.795060 0.000000 0.000000 0.000000 -19.544017 -6.665532 1.714136 -54.694107 -5.871381 -6.136398 -6.401083 -16.974288 1.654479 0.000000 0.000000 0.000000 28.829040 -4.608678 -3.700042 55.302945 4.433020 -6.092330 3.951743 20.524006 1.702155 0.000000 0.000000 0.000000 
-0.000407 0.955868 0.006266 -0.253379 -3.306838 -0.453428 2.873736 0.548944 7.869627 -2.854827 0.420136 -8.239124 3.362966 10.054261 13.429934 0.000000 0.000000 0.000000 -4.017029 -0.180944 4.951965 3.468284 -0.377836 -4.380780 -0.572451 -6.405668 11.702098 0.000000 0.000000 0.000000 5.341208 -0.298462 3.068901 -5.001359 1.809298 -21.889995 -1.196116 5.355864 26.899007 7.289661 -2.348968 -24.103175 0.000000 0.000000 0.000000 -19.417752 -6.843484 1.811028 -55.001551 -5.874250 -6.144796 -6.736391 -17.096236 1.716041 0.000000 0.000000 0.000000 28.766567 -4.675607 -3.750736 55.796833 4.527534 -6.059022 4.079740 20.283817 1.699628 0.000000 0.000000 0.000000 
-0.000451 0.956010 0.006300 -0.297890 -3.381550 -0.545719 2.883060 0.566735 8.092842 -2.808066 0.419922 -8.324646 3.311816 9.942196 13.286125 0.000000 0.000000 0.000000 -3.956472 -0.193249 5.086981 3.471460 -0.378323 -4.503185 -0.570808 -6.423799 11.738683 0.000000 0.000000 0.000000 5.408486 -0.307987 3.175030 -5.015443 1.809892 -22.009270 -1.117847 5.331546 26.898368 7.312587 -2.361524 -24.200192 0.000000 0.000000 0.000000 -19.753753 -7.031056 1.918317 -54.680664 -5.659312 -6.205559 -7.024878 -17.481319 1.800770 0.000000 0.000000 0.000000 29.057208 -4.414996 -3.632688 55.600800 4.652949 -5.991149 4.038811 20.265533 1.685432 0.000000 0.000000 0.000000 
-0.000486 0.956214 0.006295 -0.261546 -3.571087 -0.636751 2.783173 0.590512 8.253149 -2.707784 0.420426 -8.533195 3.339810 9.984569 13.376855 0.000000 0.000000 0.000000 -4.114114 -0.183120 5.159695 3.514773 -0.379311 -4.537159 -0.413705 -6.132966 11.687895 0.000000 0.000000 0.000000 5.443002 -0.316951 3.289019 -5.047319 1.814299 -22.068617 -1.042315 5.354381 26.911447 7.345687 -2.337195 -24.624470 0.000000 0.000000 0.000000 -19.903034 -7.124294 1.993239 -54.629304 -5.466631 -6.289936 -7.242662 -17.769854 1.868445 0.000000 0.000000 0.000000 29.153089 -4.081745 -3.455750 55.649577 4.973029 -5.846395 3.617437 20.226443 1.609608 0.000000 0.000000 0.000000 
-0.000531 0.956303 0.006243 -0.229376 -3.710408 -0.655823 2.714948 0.616076 8.481828 -2.631794 0.422992 -8.815078 3.379112 10.058452 13.520572 0.000000 0.000000 0.000000 -4.211044 -0.178368 5.248592 3.507716 -0.378807 -4.746890 -0.393613 -6.187780 11.908887 0.000000 0.000000 0.000000 5.465897 -0.317264 3.291074 -5.078527 1.819723 -22.074529 -1.005850 5.503032 26.939087 7.476223 -2.386632 -24.759366 0.000000 0.000000 0.000000 -20.024565 -7.266234 2.052397 -54.479306 -5.342469 -6.327779 -7.180241 -17.850542 1.865688 0.000000 0.000000 0.000000 29.281793 -4.016413 -3.403144 55.442518 5.359132 -5.670543 3.424828 20.259050 1.582550 0.000000 0.000000 0.000000 
-0.000611 0.956323 0.006131 -0.221962 -3.829057 -0.663179 2.757158 0.622872 8.581111 -2.614687 0.426843 -9.017414 3.411928 10.085697 13.444695 0.000000 0.000000 0.000000 -4.163315 -0.181348 5.271238 3.413179 -0.373187 -4.851861 -0.369017 -6.168648 11.944345 0.000000 0.000000 0.000000 5.504087 -0.321197 3.324151 -5.132254 1.827832 -22.223130 -0.938091 5.496197 27.073453 7.652454 -2.462635 -25.099257 0.000000 0.000000 0.000000 -20.231576 -7.277056 2.083542 -54.418009 -5.187914 -6.409383 -7.107020 -17.957497 1.870434 0.000000 0.000000 0.000000 29.259506 -3.841741 -3.309199 55.381960 5.487066 -5.620012 3.161281 20.390056 1.551570 0.000000 0.000000 0.000000 
-0.000740 0.956327 0.005979 -0.212655 -3.821728 -0.692683 2.778703 0.633665 8.741484 -2.598926 0.430640 -9.284189 3.378329 10.076449 13.687358 0.000000 0.000000 0.000000 -4.116484 -0.193686 5.417399 3.327323 -0.370282 -5.067503 -0.320423 -6.157049 12.178635 0.000000 0.000000 0.000000 5.512176 -0.324588 3.365979 -5.155092 1.833898 -22.245863 -0.922340 5.447700 27.051870 7.713671 -2.459643 -25.419819 0.000000 0.000000 0.000000 -20.215393 -7.334122 2.127704 -54.539884 -4.995788 -6.508079 -7.206845 -18.038065 1.896412 0.000000 0.000000 0.000000 29.323591 -3.790187 -3.299413 55.337991 5.705495 -5.513817 3.240720 20.672772 1.589745 0.000000 0.000000 0.000000 
-0.000878 0.956434 0.005832 -0.330808 -4.000308 -0.807469 2.901493 0.648220 9.005840 -2.620680 0.435598 -9.422024 3.384248 10.042889 13.522731 0.000000 0.000000 0.000000 -4.020520 -0.207760 5.554915 3.305181 -0.368841 -5.184592 -0.261645 -6.156312 12.430220 0.000000 0.000000 0.000000 5.599320 -0.346389 3.609516 -5.150864 1.826861 -22.422420 -0.844938 5.468383 27.032232 7.832469 -2.513794 -25.629267 0.000000 0.000000 0.000000 -20.227190 -7.413611 2.196283 -54.418488 -4.776574 -6.596821 -7.402212 -18.122664 1.937130 0.000000 0.000000 0.000000 29.302985 -3.736054 -3.298002 55.320283 5.609083 -5.545657 3.389795 21.028745 1.644652 0.000000 0.000000 0.000000 
